<?xml version="1.0" encoding="utf-8"?>
<svg viewBox="0 0 500 500" xmlns="http://www.w3.org/2000/svg">
  <path id="path148" style="fill:rgb(226, 50, 41);fill-opacity:1;fill-rule:nonzero;stroke:none;stroke-width:0.347732" d="M 68.403 72.325 L 70.514 62.806 L 143.817 57.947 L 55.003 460.846 L 45.139 461.498 L 131.84 68.114 L 68.403 72.325 Z M 85.311 494.317 L 189.647 19.425 L 40.919 29.296 L 22.602 112.186 L 86.039 107.974 L 0.033 499.991 L 85.311 494.317 Z"/>
  <path id="path152" style="fill:rgb(226, 50, 41);fill-opacity:1;fill-rule:nonzero;stroke:none;stroke-width:0.347732" d="M 436.338 38.516 L 385.919 267.231 L 454.219 262.775 L 451.978 272.983 L 383.666 277.44 L 347.513 441.417 L 336.766 442.122 L 372.946 278.143 L 210.802 288.799 L 436.338 38.516 Z M 165.697 327.278 L 327.827 316.608 L 291.831 480.602 L 377.124 474.929 L 413.119 311.044 L 481.93 306.562 L 499.992 224.254 L 431.208 228.739 L 481.431 0.037 L 416.425 4.586 L 178.342 270.073 L 165.697 327.278 Z"/>
  <path id="path1772" d="M 417.423 75.466 L 233.852 277.14 L 375.183 267.933 L 417.423 75.466 Z M 364.065 173.995 L 349.396 240.826 L 299.288 244.104 L 364.065 173.995 Z" style="fill:rgb(226, 50, 41);fill-opacity:1;stroke:none;stroke-width:0.262684px;stroke-linecap:butt;stroke-linejoin:miter;stroke-opacity:1"/>
</svg>
